<svg xmlns="http://www.w3.org/2000/svg" version="1.1" xmlns:xlink="http://www.w3.org/1999/xlink"
     xmlns:svgjs="http://svgjs.dev/svgjs" width="309" height="305" viewBox="0 0 1000 1125">
    <g transform="matrix(1,0,0,1,0.00007343750002064553,0)">
        <svg viewBox="0 0 320 360" data-background-color="#ffffff" preserveAspectRatio="xMidYMid meet" height="1125"
             width="1000" xmlns="http://www.w3.org/2000/svg" xmlns:xlink="http://www.w3.org/1999/xlink">
            <g id="tight-bounds" transform="matrix(1,0,0,1,0.000023499999997511622,0)">
                <svg viewBox="0 0 320 360" height="360" width="320">
                    <g>
                        <svg></svg>
                    </g>
                    <g>
                        <svg viewBox="0 0 320 360" height="360" width="320">
                            <g>
                                <path transform="translate(-74.99272,-51.79039) scale(4.65793,4.65793)"
                                      d="M20.6 59.9l0.8 1-0.4-1.3c-0.1-0.6-0.8 0.1-0.4 0.3M21.5 59.3c0.3 0.5 0.6 1 0.6 1.5 0 0.7 0.6 1 1.1 1.2-0.7-0.8-1.1-3-1.7-2.7M59.9 16.9c1.7 0 3.3-0.2 5.1 0.2 4.4 1.1 8.1 3.3 10.6 6.4l7 11.2c0.3 2.8 0.9 5.9 0.8 9.3 0.7 0 0.6-1 1.4-1.2-0.8 2-1.2 4.5-1.4 7.4-0.5-1.6 0-4 0.1-5.3-0.7 1.1-1.1 0.3-1.1-0.2 0.1-0.8-0.3-0.7-0.6-1-1.1-1-1.8-2.1-2.6-3.8 0.5-1.3 0.6-3.2-1-4.2-0.5-0.3-1.1-0.8-1.4-1.6-0.4-1.1-1.1-2.4-0.9-4.1 0.1-0.5-1.5 1.1-2.4 0.4-3.9-2.7-7.8-5.8-12.5-8.4-2.5 0-4.3-0.9-5.2-2-0.8-1-0.2-2.3 1-2.4 0.7 0 1.5-0.2 2.1 0.2 0.1-0.4 0.5-0.9 1-0.9M50 14.6l0.2 0.1c1 0.2 1.5 1.6 2.6 1.1 0 0.7 0.1 1.4-0.1 1.9-0.3 0.8-1.2 0.8-1.9 0.8-6.7-0.4-10.6 2.4-14.7 4.8-1.1 0.7-2.3 1.2-3.2 2.1-4.3 4-9 7.7-10.1 15.1l-0.9 8.2c-0.1 0.9-1.1 1.8-0.9 2.9l0.7 4.9c-0.7-0.7-1.1 0.2-0.9 0.6 0.1 0.3 0.5 1.3 1.1 0.4 0.8 1.5 1.6 4.4 2.7 5.7 3.4 4 7.8 7.6 11.4 11.2 0.9-0.2 1.6-0.2 1.8-0.8 0.3 0.6-0.3 1.2-0.8 1.3 1.6 1 3.4 1.9 5.8 2.1 3.1 0.2 6 0.7 8.7 1.4 1.4-0.4 2.8-0.6 4.3-0.7 0.5 0 0.8-0.8 1.4-1l0.1-1c0.6 0.9 0.5-0.3 0.1-0.9 0.7 0.6 0.9 1.1 1.2 1.5 0-0.3 0.8-1.4 0.8-0.1l0.2-1.3c0.3-0.2 0.4 1.1 0.7 0.2 0.3-0.9 0.9-0.2 1.5-0.5-0.2 0.4-0.1 1.2 0.6 0.7l0.8-0.7c0.5 1.2 1.3 0.7 1.7 0.5 4.4-2.8 8.8-6.1 13-9.4l-0.1 1.3 0.5-1.6c0.5 0.5 0.9 0.1 1.1-0.2 0.6-1 1.4-2 2.7-2.9-1.6 4.3-3.5 7.7-5.9 10.5l-1 1.2c0 0.7-0.2 1.6-1 1.7-0.4 0.1-1.2-0.2-1.8 0.4-0.3 0.4 0.7 1.2-0.1 0.6-0.7-0.5-1.4 0-2.2 0.2-0.6 0.2 0.4 0.8 0.6 1.2 0.2 0.4 0.4 0.8 0.3 1.3l-1.1-1.2c-1.3 0.7-2.1 2-3.2 3-0.5 0.4-0.3 1.1-0.3 1.7-0.7 0-1.5-0.2-1.9 0.2-0.3 0.4-0.2 1-0.2 1.6-1-0.1-1.1-1.6-2-1.3-0.9 0.2-1.9 0.3-2.7 0.8 0.6 1.2-1 0.5-0.8 0.7-1.5-0.9-2.8-1.6-4.4-1-3.4-1.1-7.6-0.6-10.7-0.2 0-0.5 0.1-1-0.1-1.1-0.2 0.5-0.8 0.3-0.7 0.3-1.9-1.3-3.8-2.1-5.8-3.2-1.8 0.2-3.5-0.7-4-1.2-1.4-1.3-3-0.6-4.3-0.9-2.8-0.7-3.8-3.6-4.1-5.6-0.2-1-1-1.4-1.3-1.3-1.3-4.2-3.3-8-4.9-11.9-0.4-1-0.3-2-0.3-3.1 0.5 0.2 1 0.1 0.9-0.6-0.5-3.3-1.7-5.8-3-8.2 0.7-3.4 0.8-7.4 2.4-10.4 1.4-2.7 4-4.1 5.8-6.4 0.6-0.8 0.6-1.9 1.2-2.6 2-2 4-4.1 6.2-5.9 1-0.8 2.2 0 3.7-0.3 0.5-1.8 2.5-3.4 4.4-2.9 0.8 0.2 2.4-1.9 2.9-2.1 0.8-0.3 0.4 0.8 0.4 1.5 1.9-1.5 4.5-2.3 6.9-3.2"
                                      fill="#89939e" fill-rule="nonzero" stroke="none" stroke-width="1"
                                      stroke-linecap="butt" stroke-linejoin="miter" stroke-miterlimit="10"
                                      stroke-dasharray="" stroke-dashoffset="0" font-family="none" font-weight="none"
                                      font-size="none" text-anchor="none" style="mix-blend-mode: normal"
                                      data-fill-palette-color="tertiary"></path>
                            </g>
                            <g transform="matrix(1,0,0,1,64,127.07595897865535)">
                                <svg viewBox="0 0 192 105.8480820426893" height="105.8480820426893" width="192">
                                    <g>
                                        <svg viewBox="0 0 192 105.8480820426893" height="105.8480820426893" width="192">
                                            <g>
                                                <svg viewBox="0 0 192 105.8480820426893" height="105.8480820426893"
                                                     width="192">
                                                    <g>
                                                        <svg viewBox="0 0 192 50.296058288032455"
                                                             height="50.296058288032455" width="192">
                                                            <g id="textblocktransform">
                                                                <svg viewBox="0 0 192 50.296058288032455"
                                                                     height="50.296058288032455" width="192"
                                                                     id="textblock">
                                                                    <g>
                                                                        <svg viewBox="0 0 192 23.43794947446063"
                                                                             height="23.43794947446063" width="192">
                                                                            <g transform="matrix(1,0,0,1,0,0)">
                                                                                <svg width="192"
                                                                                     viewBox="2.5 -33.1 271.13 33.1"
                                                                                     height="23.43794947446063"
                                                                                     data-palette-color="#89939e">
                                                                                    <path d="M11.6 0L10.1 0Q6.8 0 5.18-0.98 3.55-1.95 3.03-3.63 2.5-5.3 2.5-7.45L2.5-7.45 2.5-15Q2.5-16.9 3.03-18.57 3.55-20.25 5.18-21.33 6.8-22.4 10.1-22.4L10.1-22.4 11.65-22.4Q15.3-22.4 18.28-22.2 21.25-22 22.35-21.85L22.35-21.85 22.35-31.7 31.6-31.7 31.6 0 24.35 0 22.4-1Q20.3-0.65 17.88-0.33 15.45 0 11.6 0L11.6 0ZM14.15-6.3L14.15-6.3 20.8-6.3Q21.85-6.3 22.1-6.55 22.35-6.8 22.35-7.8L22.35-7.8 22.35-15.75Q21.1-15.85 19.4-15.98 17.7-16.1 15.65-16.1L15.65-16.1 14.15-16.1Q11.75-16.1 11.75-14.1L11.75-14.1 11.75-8.3Q11.75-7.3 12.3-6.8 12.85-6.3 14.15-6.3ZM46.85 0L37.6 0 37.6-22.4 44.85-22.4 46.1-21.8Q47.55-22.05 49.37-22.23 51.2-22.4 53.3-22.4L53.3-22.4 56-22.4Q57.45-22.4 58.8-22.03 60.15-21.65 60.8-20.95L60.8-20.95Q61.65-21.4 62.65-21.73 63.65-22.05 65.22-22.23 66.8-22.4 69.25-22.4L69.25-22.4 71.75-22.4Q74.25-22.4 75.6-21.7 76.95-21 77.52-19.95 78.1-18.9 78.22-17.82 78.35-16.75 78.35-16L78.35-16 78.35 0 69.2 0 69.2-14.1Q69.2-16.1 66.8-16.1L66.8-16.1 64-16.1Q63.2-16.1 62.9-15.9 62.6-15.7 62.6-15L62.6-15 62.6 0 53.3 0 53.3-14.1Q53.3-16.1 50.9-16.1L50.9-16.1 48.35-16.1Q47.4-16.1 47.12-15.93 46.85-15.75 46.85-15L46.85-15 46.85 0ZM93.05 0L91.55 0Q87.14 0 85.25-1.65 83.34-3.3 83.34-7.15L83.34-7.15Q83.34-10.7 85.32-12.3 87.3-13.9 91.55-13.9L91.55-13.9 93.09-13.9Q95.89-13.9 98.44-13.7 101-13.5 102.84-13.3L102.84-13.3 102.84-14.1Q102.84-14.8 102.55-15.45 102.25-16.1 100.44-16.1L100.44-16.1 97.94-16.1Q92.5-16.1 89.55-15.93 86.59-15.75 85.89-15.6L85.89-15.6 85.34-20.9Q85.34-21.4 87.09-21.73 88.84-22.05 91.89-22.23 94.94-22.4 98.84-22.4L98.84-22.4 103.84-22.4Q107.14-22.4 108.89-21.43 110.64-20.45 111.3-18.8 111.94-17.15 111.94-15L111.94-15 111.94 0 104.84 0 102.89-1Q101.69-0.75 99.07-0.38 96.44 0 93.05 0L93.05 0ZM94.44-5.9L94.44-5.9 101.34-5.9Q102.44-5.9 102.64-6.1 102.84-6.3 102.84-7.35L102.84-7.35 102.84-9.1 94.44-9.1Q93.5-9.1 93.05-8.75 92.59-8.4 92.59-7.4L92.59-7.4Q92.59-6.45 93.05-6.18 93.5-5.9 94.44-5.9ZM124.79 0L117.69 0 117.69-31.7 126.79-31.7 126.79-21.8Q128.94-22.05 131.87-22.23 134.79-22.4 138.54-22.4L138.54-22.4 139.04-22.4Q142.29-22.4 143.94-21.43 145.59-20.45 146.14-18.78 146.69-17.1 146.69-15L146.69-15 146.69-7.45Q146.69-5.6 146.07-3.88 145.44-2.15 143.79-1.07 142.14 0 139.04 0L139.04 0 138.54 0Q134.39 0 131.29-0.23 128.19-0.45 126.14-0.7L126.14-0.7 124.79 0ZM128.34-6.35L128.34-6.35 135.04-6.35Q137.44-6.35 137.44-8.35L137.44-8.35 137.44-14.1Q137.49-15.2 136.99-15.65 136.49-16.1 135.04-16.1L135.04-16.1 134.54-16.1Q131.94-16.1 129.84-15.95 127.74-15.8 126.79-15.7L126.79-15.7 126.79-7.9Q126.79-6.85 127.02-6.6 127.24-6.35 128.34-6.35ZM170.49 0L159.84 0Q156.54 0 154.76-0.95 152.99-1.9 152.34-3.58 151.69-5.25 151.69-7.45L151.69-7.45 151.69-15Q151.69-17 152.37-18.68 153.04-20.35 154.79-21.38 156.54-22.4 159.84-22.4L159.84-22.4 170.19-22.4Q174.09-22.4 176.16-21.48 178.24-20.55 179.01-18.88 179.79-17.2 179.79-15L179.79-15 179.79-8.6 171.04-8.6Q166.54-8.6 164.22-8.8 161.89-9 160.94-9.05L160.94-9.05 160.94-8.3Q160.89-6.3 163.34-6.3L163.34-6.3 164.89-6.3Q168.89-6.3 172.29-6.48 175.69-6.65 177.34-6.8L177.34-6.8 180.34-2.05Q180.34-1.55 179.49-1.1 178.64-0.65 176.51-0.33 174.39 0 170.49 0L170.49 0ZM160.94-14.1L160.94-13.4 170.54-13.4 170.54-14.1Q170.54-15.1 170.37-15.5 170.19-15.9 169.29-16 168.39-16.1 166.24-16.1L166.24-16.1 163.34-16.1Q160.94-16.1 160.94-14.1L160.94-14.1ZM194.44 0L185.34 0 185.34-22.4 192.44-22.4 194.34-21.4Q196.64-22.9 200.44-22.9L200.44-22.9Q202.94-22.9 204.84-22.38 206.74-21.85 207.91-21.25 209.09-20.65 209.39-20.4L209.39-20.4 206.89-13.9Q206.39-14.25 205.01-14.85 203.64-15.45 201.79-15.98 199.94-16.5 197.89-16.5L197.89-16.5 197.34-16.5Q195.94-16.5 195.19-16.03 194.44-15.55 194.44-13.95L194.44-13.95 194.44 0ZM222.49 0L213.39 0 213.39-27.7 212.89-31.7 222.49-31.7 222.49 0ZM233.53-24.55L233.53-24.55Q228.48-24.55 228.48-28.85L228.48-28.85Q228.48-31.25 229.76-32.18 231.03-33.1 233.53-33.1L233.53-33.1Q236.18-33.1 237.41-32.18 238.63-31.25 238.63-28.85L238.63-28.85Q238.63-24.55 233.53-24.55ZM238.03 0L228.93 0 228.93-22.4 238.03-22.4 238.03 0ZM253.88 0L244.63 0 244.63-22.4 251.88-22.4 253.88-21.4Q255.98-21.8 258.96-22.1 261.93-22.4 264.53-22.4L264.53-22.4 267.03-22.4Q269.53-22.4 270.88-21.7 272.23-21 272.81-19.95 273.38-18.9 273.5-17.82 273.63-16.75 273.63-16L273.63-16 273.63 0 264.48 0 264.48-14.1Q264.48-16.1 262.08-16.1L262.08-16.1 255.38-16.1Q254.43-16.1 254.16-15.93 253.88-15.75 253.88-15L253.88-15 253.88 0Z"
                                                                                          opacity="1"
                                                                                          transform="matrix(1,0,0,1,0,0)"
                                                                                          fill="#89939e"
                                                                                          class="undefined-text-0"
                                                                                          data-fill-palette-color="primary"
                                                                                          id="text-0"></path>
                                                                                </svg>
                                                                            </g>
                                                                        </svg>
                                                                    </g>
                                                                    <g transform="matrix(1,0,0,1,0,26.858108813571825)">
                                                                        <svg viewBox="0 0 192 23.43794947446063"
                                                                             height="23.43794947446063" width="192">
                                                                            <g transform="matrix(1,0,0,1,0,0)">
                                                                                <svg width="192"
                                                                                     viewBox="3.5 -38.15 413.28 50.45"
                                                                                     height="23.43794947446063"
                                                                                     data-palette-color="#89939e">
                                                                                    <path d="M8.5 0L3.5 0 3.5-38.15 8.5-38.15 8.5-23.85Q10.25-25.15 12.75-26.18 15.25-27.2 17.9-27.2L17.9-27.2Q20.8-27.2 22.63-26 24.45-24.8 25.3-22.73 26.15-20.65 26.15-18.05L26.15-18.05 26.15 0 21.15 0 21.15-17.45Q21.15-19 20.53-20.18 19.9-21.35 18.78-22 17.65-22.65 16.1-22.65L16.1-22.65Q14.6-22.65 13.33-22.35 12.05-22.05 10.9-21.5 9.75-20.95 8.5-20.25L8.5-20.25 8.5 0ZM45.47 0.3L45.47 0.3Q42.52 0.3 40.6-1.48 38.67-3.25 38.67-6.4L38.67-6.4 38.67-8.5Q38.67-11.6 40.8-13.58 42.92-15.55 47.22-15.55L47.22-15.55 55.57-15.55 55.57-18.35Q55.57-19.9 55.05-20.98 54.52-22.05 53.12-22.6 51.72-23.15 48.97-23.15L48.97-23.15 40.77-23.15 40.77-26.1Q42.57-26.5 45-26.8 47.42-27.1 50.67-27.15L50.67-27.15Q53.97-27.15 56.2-26.33 58.42-25.5 59.52-23.63 60.62-21.75 60.62-18.65L60.62-18.65 60.62 0 56.67 0 55.82-2.95Q55.52-2.75 54.57-2.23 53.62-1.7 52.15-1.1 50.67-0.5 48.95-0.1 47.22 0.3 45.47 0.3ZM47.77-3.35L47.77-3.35Q48.52-3.3 49.55-3.5 50.57-3.7 51.6-3.98 52.62-4.25 53.5-4.55 54.37-4.85 54.95-5.08 55.52-5.3 55.57-5.35L55.57-5.35 55.57-13.05 48.57-12.75Q45.97-12.6 44.85-11.45 43.72-10.3 43.72-8.45L43.72-8.45 43.72-7.25Q43.72-5.8 44.32-4.93 44.92-4.05 45.85-3.7 46.77-3.35 47.77-3.35ZM79.55 11.85L74.55 11.85 74.55-26.75 78.65-26.75 79.55-24.05Q80.5-24.75 81.82-25.45 83.15-26.15 84.72-26.63 86.3-27.1 87.9-27.1L87.9-27.1Q90.45-27.1 92.27-26.05 94.1-25 95.25-23.13 96.4-21.25 96.92-18.75 97.45-16.25 97.45-13.4L97.45-13.4Q97.45-8.95 96.47-5.88 95.5-2.8 93.42-1.23 91.35 0.35 87.9 0.35L87.9 0.35Q85.8 0.35 83.6-0.28 81.4-0.9 79.55-1.95L79.55-1.95 79.55 11.85ZM86.4-3.85L86.4-3.85Q88.1-3.85 89.45-4.7 90.8-5.55 91.62-7.63 92.45-9.7 92.45-13.4L92.45-13.4Q92.45-16.9 91.6-19.03 90.75-21.15 89.4-22.08 88.05-23 86.45-23L86.45-23Q84.35-23 82.62-22.35 80.9-21.7 79.55-21L79.55-21 79.55-5.75Q81.1-4.9 82.87-4.38 84.65-3.85 86.4-3.85ZM115.67 11.85L110.67 11.85 110.67-26.75 114.77-26.75 115.67-24.05Q116.62-24.75 117.94-25.45 119.27-26.15 120.84-26.63 122.42-27.1 124.02-27.1L124.02-27.1Q126.57-27.1 128.39-26.05 130.22-25 131.37-23.13 132.52-21.25 133.04-18.75 133.57-16.25 133.57-13.4L133.57-13.4Q133.57-8.95 132.59-5.88 131.62-2.8 129.54-1.23 127.47 0.35 124.02 0.35L124.02 0.35Q121.92 0.35 119.72-0.28 117.52-0.9 115.67-1.95L115.67-1.95 115.67 11.85ZM122.52-3.85L122.52-3.85Q124.22-3.85 125.57-4.7 126.92-5.55 127.74-7.63 128.57-9.7 128.57-13.4L128.57-13.4Q128.57-16.9 127.72-19.03 126.87-21.15 125.52-22.08 124.17-23 122.57-23L122.57-23Q120.47-23 118.74-22.35 117.02-21.7 115.67-21L115.67-21 115.67-5.75Q117.22-4.9 118.99-4.38 120.77-3.85 122.52-3.85ZM157.34 11.85L153.34 11.85 156.59 0Q154.99-0.05 153.54-0.68 152.09-1.3 150.97-2.73 149.84-4.15 149.14-6.55L149.14-6.55 143.14-26.75 148.39-26.75 153.79-7.6Q154.24-6.25 154.82-5.55 155.39-4.85 155.97-4.58 156.54-4.3 156.99-4.25 157.44-4.2 157.54-4.2L157.54-4.2 163.79-26.75 168.94-26.75 159.74 6.9 157.34 11.85ZM205.84 0L200.84 0 200.84-38.15 205.84-38.15 205.84-23.85Q207.59-25.15 210.09-26.18 212.59-27.2 215.24-27.2L215.24-27.2Q218.14-27.2 219.96-26 221.79-24.8 222.64-22.73 223.49-20.65 223.49-18.05L223.49-18.05 223.49 0 218.49 0 218.49-17.45Q218.49-19 217.86-20.18 217.24-21.35 216.11-22 214.99-22.65 213.44-22.65L213.44-22.65Q211.94-22.65 210.66-22.35 209.39-22.05 208.24-21.5 207.09-20.95 205.84-20.25L205.84-20.25 205.84 0ZM242.81 0.3L242.81 0.3Q239.86 0.3 237.94-1.48 236.01-3.25 236.01-6.4L236.01-6.4 236.01-8.5Q236.01-11.6 238.14-13.58 240.26-15.55 244.56-15.55L244.56-15.55 252.91-15.55 252.91-18.35Q252.91-19.9 252.39-20.98 251.86-22.05 250.46-22.6 249.06-23.15 246.31-23.15L246.31-23.15 238.11-23.15 238.11-26.1Q239.91-26.5 242.34-26.8 244.76-27.1 248.01-27.15L248.01-27.15Q251.31-27.15 253.54-26.33 255.76-25.5 256.86-23.63 257.96-21.75 257.96-18.65L257.96-18.65 257.96 0 254.01 0 253.16-2.95Q252.86-2.75 251.91-2.23 250.96-1.7 249.49-1.1 248.01-0.5 246.29-0.1 244.56 0.3 242.81 0.3ZM245.11-3.35L245.11-3.35Q245.86-3.3 246.89-3.5 247.91-3.7 248.94-3.98 249.96-4.25 250.84-4.55 251.71-4.85 252.29-5.08 252.86-5.3 252.91-5.35L252.91-5.35 252.91-13.05 245.91-12.75Q243.31-12.6 242.19-11.45 241.06-10.3 241.06-8.45L241.06-8.45 241.06-7.25Q241.06-5.8 241.66-4.93 242.26-4.05 243.19-3.7 244.11-3.35 245.11-3.35ZM281.84 0.3L281.84 0.3Q279.49 0.3 277.51-0.33 275.54-0.95 274.06-2.45 272.59-3.95 271.79-6.6 270.99-9.25 270.99-13.3L270.99-13.3Q270.99-17.45 271.74-20.13 272.49-22.8 273.91-24.33 275.34-25.85 277.39-26.45 279.44-27.05 281.99-27.05L281.99-27.05Q284.09-27.05 286.41-26.85 288.74-26.65 290.94-26.2L290.94-26.2 290.94-23.25 283.39-23.25Q280.94-23.25 279.29-22.48 277.64-21.7 276.84-19.53 276.04-17.35 276.04-13.25L276.04-13.25Q276.04-9.3 276.89-7.18 277.74-5.05 279.36-4.3 280.99-3.55 283.44-3.55L283.44-3.55 291.34-3.55 291.34-0.7Q290.19-0.4 288.61-0.18 287.04 0.05 285.31 0.18 283.59 0.3 281.84 0.3ZM308.51 0L303.51 0 303.51-38.15 308.51-38.15 308.51-16.5 312.16-16.5 319.61-26.75 324.81-26.75 315.86-14.25 325.46 0 320.21 0 312.01-12 308.51-12 308.51 0ZM341.08-31.25L337.38-31.25Q336.48-31.25 336.48-32.1L336.48-32.1 336.48-36.3Q336.48-37.2 337.38-37.2L337.38-37.2 341.08-37.2Q341.48-37.2 341.68-36.95 341.88-36.7 341.88-36.3L341.88-36.3 341.88-32.1Q341.88-31.25 341.08-31.25L341.08-31.25ZM341.68 0L336.68 0 336.68-26.75 341.68-26.75 341.68 0ZM360.81 0L355.81 0 355.81-26.75 359.81-26.75 360.81-23.85Q362.61-25.15 365.08-26.18 367.56-27.2 370.21-27.2L370.21-27.2Q373.21-27.2 375.03-25.93 376.86-24.65 377.66-22.55 378.46-20.45 378.46-18L378.46-18 378.46 0 373.46 0 373.46-17.4Q373.46-19 372.83-20.18 372.21-21.35 371.11-22 370.01-22.65 368.41-22.65L368.41-22.65Q366.91-22.65 365.63-22.35 364.36-22.05 363.21-21.53 362.06-21 360.81-20.25L360.81-20.25 360.81 0ZM406.73 12.3L399.08 12.3Q396.53 12.3 394.55 11.58 392.58 10.85 391.43 9.38 390.28 7.9 390.28 5.75L390.28 5.75 390.28 4.65Q390.28 2.4 391.55 0.88 392.83-0.65 394.78-1.45 396.73-2.25 398.83-2.25L398.83-2.25 400.18-0.4Q398.83-0.4 397.65 0.03 396.48 0.45 395.75 1.38 395.03 2.3 395.03 3.75L395.03 3.75 395.03 4.7Q395.03 6.8 396.45 7.75 397.88 8.7 400.38 8.7L400.38 8.7 406.23 8.7Q408.88 8.7 410.43 7.68 411.98 6.65 411.98 4.5L411.98 4.5 411.98 3.55Q411.98 2.35 411.45 1.45 410.93 0.55 409.78 0.08 408.63-0.4 406.63-0.4L406.63-0.4 399.23-0.4Q395.68-0.4 393.83-1.85 391.98-3.3 391.98-5.5L391.98-5.5Q391.98-7.5 393.15-8.72 394.33-9.95 396.48-10.4L396.48-10.4Q394.68-11.2 393.65-12.45 392.63-13.7 392.23-15.18 391.83-16.65 391.83-18.15L391.83-18.15Q391.83-21.2 393.08-23.1 394.33-25 396.7-25.9 399.08-26.8 402.38-26.8L402.38-26.8 416.78-26.8 416.78-23.95 411.33-23.4Q411.93-22.95 412.63-22.23 413.33-21.5 413.83-20.25 414.33-19 414.33-16.95L414.33-16.95Q414.33-14.8 413.4-12.95 412.48-11.1 410.4-9.95 408.33-8.8 404.78-8.8L404.78-8.8 400.38-8.8Q398.48-8.8 397.38-8.25 396.28-7.7 396.28-6.3L396.28-6.3Q396.28-5.15 397.13-4.7 397.98-4.25 398.93-4.25L398.93-4.25 407.38-4.25Q410.43-4.25 412.5-3.45 414.58-2.65 415.63-1 416.68 0.65 416.68 3.3L416.68 3.3 416.68 4.25Q416.68 8.05 414.2 10.18 411.73 12.3 406.73 12.3L406.73 12.3ZM401.28-12.65L401.28-12.65 404.23-12.65Q406.48-12.65 407.65-13.33 408.83-14 409.28-15.1 409.73-16.2 409.73-17.55L409.73-17.55Q409.73-19.55 409.08-20.73 408.43-21.9 407.3-22.43 406.18-22.95 404.58-22.95L404.58-22.95 401.78-22.95Q399.23-22.95 397.8-21.8 396.38-20.65 396.38-17.85L396.38-17.85Q396.38-15.1 397.68-13.88 398.98-12.65 401.28-12.65Z"
                                                                                          opacity="1"
                                                                                          transform="matrix(1,0,0,1,0,0)"
                                                                                          fill="#89939e"
                                                                                          class="undefined-text-1"
                                                                                          data-fill-palette-color="secondary"
                                                                                          id="text-1"></path>
                                                                                </svg>
                                                                            </g>
                                                                        </svg>
                                                                    </g>
                                                                </svg>
                                                            </g>
                                                        </svg>
                                                    </g>
                                                    <g transform="matrix(1,0,0,1,69.93406779222718,53.71621762714365)">
                                                        <svg viewBox="0 0 52.13186441554565 52.13186441554565"
                                                             height="52.13186441554565" width="52.13186441554565">
                                                            <g>
                                                                <svg xmlns="http://www.w3.org/2000/svg" xmlns:xlink="http://www.w3.org/1999/xlink" version="1.0" x="0" y="0" viewBox="0 0 100 100" enable-background="new 0 0 100 100" xml:space="preserve" height="52.13186441554565" width="52.13186441554565" class="icon-icon-0" data-fill-palette-color="accent" id="icon-0"><path d="M50 0C22.386 0 0 22.386 0 50s22.386 50 50 50 50-22.386 50-50S77.614 0 50 0zM16.487 37.5c0-6.903 5.597-12.5 12.5-12.5 6.904 0 12.5 5.597 12.5 12.5S35.891 50 28.987 50C22.083 50 16.487 44.403 16.487 37.5zM76.505 74.037C69.421 81.123 60.007 85.023 50 85.025c-10.008 0-19.421-3.902-26.506-10.987-1.562-1.562-1.562-4.095-0.001-5.656 1.562-1.562 4.096-1.562 5.657 0 5.574 5.573 12.979 8.644 20.85 8.644 7.87 0 15.273-3.069 20.85-8.645 1.561-1.562 4.094-1.562 5.655 0S78.066 72.477 76.505 74.037zM71.014 50c-6.903 0-12.5-5.597-12.5-12.5S64.11 25 71.014 25c6.904 0 12.5 5.597 12.5 12.5S77.918 50 71.014 50z" fill="#89939e" data-fill-palette-color="accent"></path></svg>
                                                            </g>
                                                        </svg>
                                                    </g>
                                                    <g></g>
                                                </svg>
                                            </g>
                                        </svg>
                                    </g>
                                </svg>
                            </g>
                        </svg>
                    </g>
                    <defs></defs>
                </svg>
                <rect width="320" height="360" fill="none" stroke="none" visibility="hidden"></rect>
            </g>
        </svg>
    </g>
</svg>